<?xml version="1.0"?>
<!DOCTYPE svg PUBLIC "-//W3C//DTD SVG 1.1//EN" "http://www.w3.org/Graphics/SVG/1.1/DTD/svg11.dtd">
<svg width="163.2mm" height="163.199900145mm" viewBox="0 0 163.2 163.199900145" xmlns="http://www.w3.org/2000/svg" version="1.1">
<g id="Sketch" transform="translate(1.600000,161.599900) scale(1,-1)">
<path id="Sketch_w0000"  d="M 15.0000447228 1.74731340508e-11 L 144.999950708 2.27524665775e-11 A 15.000012344 15.000012344 0 0 1 160.0 14.9999974944 L 160.0 144.99990348 A 15.000012344 15.000012344 0 0 1 144.999950297 159.999900145 L 15.0000443117 159.999900145 A 15.0 15.0 0 0 1 1.44773082768e-13 144.999903094 L 3.86890519658e-12 14.999997109 A 15.000012344 15.000012344 0 0 1 15.0000447228 1.74731340508e-11 " stroke="#000000" stroke-width="0.35 px" style="stroke-width:0.35;stroke-miterlimit:4;stroke-dasharray:none;fill:none;fill-rule: evenodd "/>
<title>Board</title>
</g>
<g id="Sketch001" transform="translate(1.600000,161.599900) scale(1,-1)">
<circle cx="36.3430008875" cy="72.0975325152" r="1.35" stroke="#000000" stroke-width="0.35 px" style="stroke-width:0.35;stroke-miterlimit:4;stroke-dasharray:none;fill:none"/>
<circle cx="61.8430008875" cy="17.5975325152" r="1.35" stroke="#000000" stroke-width="0.35 px" style="stroke-width:0.35;stroke-miterlimit:4;stroke-dasharray:none;fill:none"/>
<path id="Sketch001_w0002"  d="M 18.3430008875 99.0117460776 L 16.9287873251 97.5975325152 L 18.3430008875 96.1833189528 L 19.7572144499 97.5975325152 L 18.3430008875 99.0117460776 " stroke="#000000" stroke-width="0.35 px" style="stroke-width:0.35;stroke-miterlimit:4;stroke-dasharray:none;fill:none;fill-rule: evenodd "/>
<path id="Sketch001_w0003"  d="M 74.3430008875 11.1833189528 L 75.7572144499 12.5975325152 L 74.3430008875 14.0117460776 L 72.9287873251 12.5975325152 L 74.3430008875 11.1833189528 " stroke="#000000" stroke-width="0.35 px" style="stroke-width:0.35;stroke-miterlimit:4;stroke-dasharray:none;fill:none;fill-rule: evenodd "/>
<path id="Sketch001_w0004"  d="M 18.3430008875 11.1833189528 L 19.7572144499 12.5975325152 L 18.3430008875 14.0117460776 L 16.9287873251 12.5975325152 L 18.3430008875 11.1833189528 " stroke="#000000" stroke-width="0.35 px" style="stroke-width:0.35;stroke-miterlimit:4;stroke-dasharray:none;fill:none;fill-rule: evenodd "/>
<path id="Sketch001_w0005"  d="M 74.3430008875 96.1833189528 L 75.7572144499 97.5975325152 L 74.3430008875 99.0117460776 L 72.9287873251 97.5975325152 L 74.3430008875 96.1833189528 " stroke="#000000" stroke-width="0.35 px" style="stroke-width:0.35;stroke-miterlimit:4;stroke-dasharray:none;fill:none;fill-rule: evenodd "/>
<title>RaspberryMounting</title>
</g>
<g id="Sketch002" transform="translate(1.600000,161.599900) scale(1,-1)">
<circle cx="90.8317519695" cy="52.2836654996" r="1.35" stroke="#000000" stroke-width="0.35 px" style="stroke-width:0.35;stroke-miterlimit:4;stroke-dasharray:none;fill:none"/>
<circle cx="134.83175197" cy="19.7836654996" r="1.35" stroke="#000000" stroke-width="0.35 px" style="stroke-width:0.35;stroke-miterlimit:4;stroke-dasharray:none;fill:none"/>
<path id="Sketch002_w0002"  d="M 88.3317519695 53.2230053279 L 89.3924121413 54.2836654996 L 88.3317519695 55.3443256714 L 87.2710917978 54.2836654996 L 88.3317519695 53.2230053279 " stroke="#000000" stroke-width="0.35 px" style="stroke-width:0.35;stroke-miterlimit:4;stroke-dasharray:none;fill:none;fill-rule: evenodd "/>
<path id="Sketch002_w0003"  d="M 137.33175197 16.7230053279 L 138.392412141 17.7836654996 L 137.33175197 18.8443256714 L 136.271091798 17.7836654996 L 137.33175197 16.7230053279 " stroke="#000000" stroke-width="0.35 px" style="stroke-width:0.35;stroke-miterlimit:4;stroke-dasharray:none;fill:none;fill-rule: evenodd "/>
<path id="Sketch002_w0004"  d="M 88.3317519695 16.7230053279 L 89.3924121413 17.7836654996 L 88.3317519695 18.8443256714 L 87.2710917978 17.7836654996 L 88.3317519695 16.7230053279 " stroke="#000000" stroke-width="0.35 px" style="stroke-width:0.35;stroke-miterlimit:4;stroke-dasharray:none;fill:none;fill-rule: evenodd "/>
<path id="Sketch002_w0005"  d="M 137.33175197 53.2230053279 L 138.392412141 54.2836654996 L 137.33175197 55.3443256714 L 136.271091798 54.2836654996 L 137.33175197 53.2230053279 " stroke="#000000" stroke-width="0.35 px" style="stroke-width:0.35;stroke-miterlimit:4;stroke-dasharray:none;fill:none;fill-rule: evenodd "/>
<circle cx="90.8317519695" cy="19.7836654996" r="1.35" stroke="#000000" stroke-width="0.35 px" style="stroke-width:0.35;stroke-miterlimit:4;stroke-dasharray:none;fill:none"/>
<circle cx="134.83175197" cy="52.2836654996" r="1.35" stroke="#000000" stroke-width="0.35 px" style="stroke-width:0.35;stroke-miterlimit:4;stroke-dasharray:none;fill:none"/>
<title>RelayMounting</title>
</g>
<g id="Sketch003" transform="translate(1.600000,161.599900) scale(1,-1)">
<circle cx="103.185478449" cy="105.370446649" r="1.35" stroke="#000000" stroke-width="0.35 px" style="stroke-width:0.35;stroke-miterlimit:4;stroke-dasharray:none;fill:none"/>
<circle cx="140.185478449" cy="75.8704466488" r="1.35" stroke="#000000" stroke-width="0.35 px" style="stroke-width:0.35;stroke-miterlimit:4;stroke-dasharray:none;fill:none"/>
<path id="Sketch003_w0002"  d="M 88.1854784491 105.956233086 L 89.5996920115 107.370446649 L 88.1854784491 108.784660211 L 86.7712648867 107.370446649 L 88.1854784491 105.956233086 " stroke="#000000" stroke-width="0.35 px" style="stroke-width:0.35;stroke-miterlimit:4;stroke-dasharray:none;fill:none;fill-rule: evenodd "/>
<path id="Sketch003_w0003"  d="M 151.685478449 67.9562330864 L 153.099692011 69.3704466488 L 151.685478449 70.7846602112 L 150.271264887 69.3704466488 L 151.685478449 67.9562330864 " stroke="#000000" stroke-width="0.35 px" style="stroke-width:0.35;stroke-miterlimit:4;stroke-dasharray:none;fill:none;fill-rule: evenodd "/>
<path id="Sketch003_w0004"  d="M 88.1854784491 67.9562330864 L 89.5996920115 69.3704466488 L 88.1854784491 70.7846602112 L 86.7712648867 69.3704466488 L 88.1854784491 67.9562330864 " stroke="#000000" stroke-width="0.35 px" style="stroke-width:0.35;stroke-miterlimit:4;stroke-dasharray:none;fill:none;fill-rule: evenodd "/>
<path id="Sketch003_w0005"  d="M 151.685478449 105.956233086 L 153.099692011 107.370446649 L 151.685478449 108.784660211 L 150.271264887 107.370446649 L 151.685478449 105.956233086 " stroke="#000000" stroke-width="0.35 px" style="stroke-width:0.35;stroke-miterlimit:4;stroke-dasharray:none;fill:none;fill-rule: evenodd "/>
<circle cx="103.185478449" cy="71.3704466488" r="1.35" stroke="#000000" stroke-width="0.35 px" style="stroke-width:0.35;stroke-miterlimit:4;stroke-dasharray:none;fill:none"/>
<circle cx="140.185478449" cy="100.870446649" r="1.35" stroke="#000000" stroke-width="0.35 px" style="stroke-width:0.35;stroke-miterlimit:4;stroke-dasharray:none;fill:none"/>
<title>RFIDMounting</title>
</g>
<g id="Sketch004" transform="translate(1.600000,161.599900) scale(1,-1)">
<circle cx="100.96865469" cy="142.870611561" r="0.85" stroke="#000000" stroke-width="0.35 px" style="stroke-width:0.35;stroke-miterlimit:4;stroke-dasharray:none;fill:none"/>
<circle cx="138.46865469" cy="126.370611561" r="0.85" stroke="#000000" stroke-width="0.35 px" style="stroke-width:0.35;stroke-miterlimit:4;stroke-dasharray:none;fill:none"/>
<path id="Sketch004_w0002"  d="M 79.9686546898 143.809951389 L 81.0293148616 144.870611561 L 79.9686546898 145.931271733 L 78.9079945181 144.870611561 L 79.9686546898 143.809951389 " stroke="#000000" stroke-width="0.35 px" style="stroke-width:0.35;stroke-miterlimit:4;stroke-dasharray:none;fill:none;fill-rule: evenodd "/>
<path id="Sketch004_w0003"  d="M 140.46865469 123.309951389 L 141.529314862 124.370611561 L 140.46865469 125.431271733 L 139.407994518 124.370611561 L 140.46865469 123.309951389 " stroke="#000000" stroke-width="0.35 px" style="stroke-width:0.35;stroke-miterlimit:4;stroke-dasharray:none;fill:none;fill-rule: evenodd "/>
<path id="Sketch004_w0004"  d="M 79.9686546898 123.309951389 L 81.0293148616 124.370611561 L 79.9686546898 125.431271733 L 78.9079945181 124.370611561 L 79.9686546898 123.309951389 " stroke="#000000" stroke-width="0.35 px" style="stroke-width:0.35;stroke-miterlimit:4;stroke-dasharray:none;fill:none;fill-rule: evenodd "/>
<path id="Sketch004_w0005"  d="M 140.46865469 143.809951389 L 141.529314862 144.870611561 L 140.46865469 145.931271733 L 139.407994518 144.870611561 L 140.46865469 143.809951389 " stroke="#000000" stroke-width="0.35 px" style="stroke-width:0.35;stroke-miterlimit:4;stroke-dasharray:none;fill:none;fill-rule: evenodd "/>
<circle cx="100.96865469" cy="126.370611561" r="0.85" stroke="#000000" stroke-width="0.35 px" style="stroke-width:0.35;stroke-miterlimit:4;stroke-dasharray:none;fill:none"/>
<circle cx="138.46865469" cy="142.870611561" r="0.85" stroke="#000000" stroke-width="0.35 px" style="stroke-width:0.35;stroke-miterlimit:4;stroke-dasharray:none;fill:none"/>
<title>PowerMounting</title>
</g>
<g id="Sketch005" transform="translate(1.600000,161.599900) scale(1,-1)">
<circle cx="5.0" cy="11.0" r="1.7" stroke="#000000" stroke-width="0.35 px" style="stroke-width:0.35;stroke-miterlimit:4;stroke-dasharray:none;fill:none"/>
<circle cx="11.0" cy="5.0" r="1.7" stroke="#000000" stroke-width="0.35 px" style="stroke-width:0.35;stroke-miterlimit:4;stroke-dasharray:none;fill:none"/>
<circle cx="155.0" cy="11.0" r="1.7" stroke="#000000" stroke-width="0.35 px" style="stroke-width:0.35;stroke-miterlimit:4;stroke-dasharray:none;fill:none"/>
<circle cx="149.0" cy="5.0" r="1.7" stroke="#000000" stroke-width="0.35 px" style="stroke-width:0.35;stroke-miterlimit:4;stroke-dasharray:none;fill:none"/>
<circle cx="149.0" cy="155.0" r="1.7" stroke="#000000" stroke-width="0.35 px" style="stroke-width:0.35;stroke-miterlimit:4;stroke-dasharray:none;fill:none"/>
<circle cx="155.0" cy="149.0" r="1.7" stroke="#000000" stroke-width="0.35 px" style="stroke-width:0.35;stroke-miterlimit:4;stroke-dasharray:none;fill:none"/>
<circle cx="11.0" cy="155.0" r="1.7" stroke="#000000" stroke-width="0.35 px" style="stroke-width:0.35;stroke-miterlimit:4;stroke-dasharray:none;fill:none"/>
<circle cx="5.0" cy="149.0" r="1.7" stroke="#000000" stroke-width="0.35 px" style="stroke-width:0.35;stroke-miterlimit:4;stroke-dasharray:none;fill:none"/>
<title>EdgeMounting</title>
</g>
<g id="Sketch006" transform="translate(1.600000,161.599900) scale(1,-1)">
<circle cx="111.821682453" cy="61.364633" r="2.47" stroke="#000000" stroke-width="0.35 px" style="stroke-width:0.35;stroke-miterlimit:4;stroke-dasharray:none;fill:none"/>
<circle cx="121.821682453" cy="61.364633" r="2.47" stroke="#000000" stroke-width="0.35 px" style="stroke-width:0.35;stroke-miterlimit:4;stroke-dasharray:none;fill:none"/>
<circle cx="131.821682453" cy="61.364633" r="2.47" stroke="#000000" stroke-width="0.35 px" style="stroke-width:0.35;stroke-miterlimit:4;stroke-dasharray:none;fill:none"/>
<title>LEDMounting</title>
</g>
</svg>