<?xml version="1.0" encoding="UTF-8" standalone="no"?>
<!-- Created with Inkscape (http://www.inkscape.org/) -->

<svg
   xmlns:dc="http://purl.org/dc/elements/1.1/"
   xmlns:cc="http://creativecommons.org/ns#"
   xmlns:rdf="http://www.w3.org/1999/02/22-rdf-syntax-ns#"
   xmlns:svg="http://www.w3.org/2000/svg"
   xmlns="http://www.w3.org/2000/svg"
   xmlns:sodipodi="http://sodipodi.sourceforge.net/DTD/sodipodi-0.dtd"
   xmlns:inkscape="http://www.inkscape.org/namespaces/inkscape"
   width="210mm"
   height="297mm"
   viewBox="0 0 744.09448819 1052.3622047"
   id="svg4276"
   version="1.1"
   inkscape:version="0.91 r"
   sodipodi:docname="logo.svg">
  <defs
     id="defs4278" />
  <sodipodi:namedview
     id="base"
     pagecolor="#ffffff"
     bordercolor="#666666"
     borderopacity="1.0"
     inkscape:pageopacity="0.0"
     inkscape:pageshadow="2"
     inkscape:zoom="1.4"
     inkscape:cx="199.02398"
     inkscape:cy="645.48128"
     inkscape:document-units="px"
     inkscape:current-layer="layer1"
     showgrid="false"
     inkscape:window-width="1780"
     inkscape:window-height="1057"
     inkscape:window-x="138"
     inkscape:window-y="-3"
     inkscape:window-maximized="1" />
  <metadata
     id="metadata4281">
    <rdf:RDF>
      <cc:Work
         rdf:about="">
        <dc:format>image/svg+xml</dc:format>
        <dc:type
           rdf:resource="http://purl.org/dc/dcmitype/StillImage" />
        <dc:title></dc:title>
      </cc:Work>
    </rdf:RDF>
  </metadata>
  <g
     inkscape:label="Layer 1"
     inkscape:groupmode="layer"
     id="layer1">
    <path
       sodipodi:nodetypes="ccccccc"
       inkscape:connector-curvature="0"
       id="path4014-0-73"
       d="m 236.72435,217.09578 c -30.21288,-10.5984 -39.49859,10.1159 -67.12497,20.2583 -2.37362,-0.1424 15.56096,42.4882 19.42206,109.41141 -1.79568,10.4462 31.8609,11.8085 48.4172,23.3385 10.19512,-9.6853 50.54473,-13.1449 47.65959,-23.5911 0.13798,-33.29791 21.64397,-108.96271 19.67459,-109.41141 -27.54706,-9.8898 -38.26971,-30.5978 -68.04847,-20.0057 z"
       style="fill:none;fill-opacity:1;fill-rule:evenodd;stroke:#000000;stroke-width:1;stroke-linecap:butt;stroke-linejoin:miter;stroke-opacity:1" />
    <path
       sodipodi:nodetypes="cscssssssssssssssccsssscsssssscssscssssscssssssscssssccssssssssssssscscssccssssssscsssssssssssssscsssscssssssscsssssssssss"
       inkscape:connector-curvature="0"
       id="path5117"
       d="m 242.58159,315.19845 c 0.32856,-5.6398 -0.07,-6.7496 -3.80765,-10.6019 l -3.03538,-3.1285 -0.15083,-2.6693 c -0.14019,-2.481 -0.24816,-2.7667 -1.53,-4.0485 -0.83875,-0.8388 -0.2821,-1.8817 -1.50701,-2.2773 -3.5598,-1.1497 -3.72889,-1.3938 -9.86197,1.4212 -2.66743,1.2243 -4.54638,1.8676 -5.21064,1.784 -0.92219,-0.1161 -0.76349,-0.2611 1.41311,-1.2909 2.34776,-1.1108 3.90372,-2.3084 4.71534,-3.6294 0.27372,-0.4455 1.41173,-0.7335 4.14751,-1.0494 7.99159,-0.923 8.91175,1.7492 10.24851,6.3475 0.32704,1.125 0.4905,2.3734 0.36325,2.7744 -0.27874,0.8782 0.60549,3.1122 1.90751,4.8192 1.04869,1.3749 1.84672,1.6535 1.48662,0.5189 -0.12697,-0.4001 -0.45175,-2.7419 -0.72172,-5.2041 -0.55796,-5.0887 -0.0406,-3.7909 -0.11244,-7.0174 -0.0538,-2.4156 -0.12381,-1.3162 -0.14378,-2.3229 -0.02,-1.0067 -0.84319,-4.4425 -4.85092,-4.835 -2.72483,-0.3158 -2.58957,0.07 -4.05934,1.0088 -1.07819,0.6889 -2.1767,2.079 -3.0683,-0.8207 -0.33186,-1.0793 0.0358,-2.112 1.31829,-3.511 0.77199,-0.8421 1.95217,-1.5604 3.26886,-1.9895 l 2.06067,-0.6715 -2.50734,-0.2569 c -6.46376,-0.6622 -8.57624,-3.274 -8.98544,-8.9929 -0.20774,-2.9036 0.0675,-3.9333 2.4521,-9.1738 1.16728,-2.5652 1.75095,-4.4131 1.89471,-5.9985 0.18472,-2.0371 0.62926,-2.3567 0.71602,-1.596 0.14985,1.3138 1.08,4.8436 -0.63654,8.5182 -2.06682,4.4245 -2.57149,8.1654 -1.60609,10.6704 0.96477,2.5033 1.24291,3.0052 2.99932,3.834 0.70071,0.3306 2.35403,0.8701 3.67567,1.1954 3.61995,0.891 3.57005,0.8639 2.74381,1.4892 -0.41065,0.3108 -0.51619,0.5486 -0.24651,0.5555 0.94679,0.024 0.43563,0.6275 -0.94307,1.1133 -2.9652,1.0449 -5.37918,3.7804 -2.82922,3.2062 3.21432,-0.7239 4.17301,-1.0711 5.28907,-1.9155 0.68382,-0.5174 1.60872,-0.8802 2.07475,-0.814 0.68258,0.097 0.86383,0.401 0.96277,1.6147 l 0.12188,1.4953 1.0098,-1.8607 c 0.55539,-1.0234 1.47701,-2.1206 2.04806,-2.4383 0.95543,-0.5315 1.15012,-0.5174 2.4403,0.1768 1.53973,0.8286 3.12291,2.8918 3.12291,4.0698 0,0.5879 -0.33597,0.3701 -1.54097,-0.9988 -2.491,-2.83 -4.16335,-2.1747 -4.67815,1.833 -0.13325,1.0374 -0.33775,2.3895 -0.45444,3.0047 l -0.21216,1.1187 1.31655,-1.0042 c 0.72411,-0.5523 1.80658,-1.1125 2.40549,-1.2449 1.05796,-0.2339 1.05139,-0.1949 -0.46294,1.1002 -4.53017,3.8742 -5.14873,4.8092 -0.39844,22.249 0.69528,2.5526 0.85974,3.3428 0.52585,4.0756 -6.57531,14.36231 -4.17113,17.45591 -3.16744,1.3678 z m 3.07811,-37.2763 c -0.13091,-0.2118 0.41076,-0.6556 1.20372,-0.9862 4.30198,-1.7936 4.76046,-2.8752 5.01539,-11.8316 0.12037,-4.2293 0.34604,-6.9787 0.57279,-6.9787 0.56078,0 2.00852,7.8913 2.04156,11.1282 0.0309,3.0214 -0.94933,5.8969 -2.47036,7.2472 -1.67143,1.4838 -5.76001,2.3969 -6.3631,1.4211 z m -4.48722,-2.0668 c 0.54749,-2.3495 0.27691,-4.5627 -0.19102,-5.3989 -0.30035,-0.5367 -0.39713,-0.4943 -0.71764,0.3145 -0.20375,0.5142 -0.56555,1.6612 -0.80399,2.549 -0.23844,0.8877 -0.5956,1.5139 -0.79368,1.3915 -0.52359,-0.3236 -0.3576,-4.6383 0.24622,-6.4007 0.28434,-0.8299 0.51946,-1.8965 0.52248,-2.3702 0.007,-1.0766 -1.50721,-4.0997 -3.53608,-7.0605 l -1.551,-2.2633 -0.11765,1.2184 c -0.0647,0.6701 0.14749,3.5054 0.47154,6.3005 0.32405,2.7952 -1.55369,-2.4513 -1.55369,-1.6738 -1.44868,-2.307 -0.62457,0.6898 -1.14834,-1.389 -0.43135,-1.6312 -0.57963,-2.5929 -0.71145,-4.5926 -0.23258,-3.5281 -0.28023,-3.6784 -1.60787,-5.0742 -1.94148,-2.041 -3.64894,-3.0245 -4.76483,-2.7444 -0.71166,0.1786 -0.87279,0.1047 -0.70795,-0.3249 0.50356,-1.3123 2.02363,-1.1763 5.39369,0.4826 1.65709,0.8157 2.07782,0.9031 2.22478,0.4622 0.35425,-1.0628 1.93352,-2.2841 2.95346,-2.2841 l 1.03183,0 -1.20329,1.1764 c -1.33441,1.3046 -1.64004,3.2727 -0.63747,4.1048 0.48244,0.4003 0.56585,0.2959 0.56585,-0.7083 0,-1.3202 1.01555,-2.5486 2.39284,-2.8943 0.82059,-0.2059 0.88603,-0.3782 0.71614,-1.8855 -0.17018,-1.5098 -0.0674,-1.7785 1.1435,-2.9894 0.73177,-0.7317 1.60209,-1.3304 1.93405,-1.3304 0.78777,0 0.76134,0.2462 -0.15089,1.4059 -0.85211,1.0833 -0.98848,2.3115 -0.28292,2.5482 0.25934,0.087 1.18526,0.3407 2.05759,0.5639 2.18594,0.5592 3.88373,2.0521 3.88373,3.415 0,0.5917 -0.16975,1.1808 -0.37722,1.309 -0.54973,0.3398 -0.46185,1.5714 0.20403,2.859 0.84638,1.6367 0.29774,2.1168 -0.99913,0.8743 l -1.08957,-1.0438 -1.4667,0.8243 c -1.68296,0.9459 -3.21625,1.0326 -4.5704,0.2585 -0.51869,-0.2965 -1.06311,-0.5451 -1.20983,-0.5525 -0.14672,-0.01 0.65353,1.3616 1.77834,3.0421 1.1248,1.6804 2.14748,3.3779 2.27262,3.7722 0.311,0.9799 0.61024,0.9076 1.89794,-0.4585 0.60937,-0.6465 1.97282,-1.8207 3.02989,-2.6093 1.6756,-1.2501 2.00198,-1.7191 2.54629,-3.659 0.34338,-1.2238 0.62433,-2.8781 0.62433,-3.6761 0,-1.9525 -1.4101,-4.254 -3.5464,-5.7882 -2.6797,-1.9244 -2.15991,-2.5939 0.97168,-1.2515 4.8389,2.0742 6.4609,5.8966 4.25924,10.0374 l -0.95608,1.7981 1.33331,-0.2502 c 1.89729,-0.3559 1.73787,0.4707 -0.34449,1.7863 -2.08342,1.3162 -5.71761,4.8445 -7.10981,6.9027 -0.98644,1.4584 -1.02737,1.6792 -0.69913,3.7723 0.45089,2.8753 0.26105,7.5737 -1.17214,7.8817 -1.01643,0.2184 -0.70102,0.7656 -0.43471,-0.3772 z m -0.29955,-23.2741 c 0.35092,-0.3509 0.89529,-1.2682 0.10867,-2.0893 -1.13364,-1.1832 -3.08053,-0.7833 -3.84048,0.1323 -0.43537,0.5246 0.80032,0.1982 1.70139,0.9732 1.13518,0.9765 1.31397,1.7003 2.03042,0.9838 z"
       style="fill:none;fill-opacity:1;stroke:#000000;stroke-width:1;stroke-opacity:1" />
    <path
       sodipodi:nodetypes="ccccccc"
       inkscape:connector-curvature="0"
       id="path4014-0-73-2"
       d="m 236.73848,219.99903 c -28.53439,-10.17298 -37.30423,9.70985 -63.39581,19.44514 -2.24175,-0.13668 14.69647,40.78272 18.34306,105.01965 -1.69592,10.02688 30.09085,11.3345 45.72736,22.40169 9.62873,-9.29653 47.7367,-12.61727 45.01184,-22.64415 0.13031,-31.96134 20.44153,-104.58897 18.58156,-105.01965 -26.01667,-9.49283 -36.14362,-29.36961 -64.26801,-19.20268 z"
       style="fill:none;fill-opacity:1;fill-rule:evenodd;stroke:#000000;stroke-width:0.95212114;stroke-linecap:butt;stroke-linejoin:miter;stroke-opacity:1" />
  </g>
</svg>
